<svg width="248" height="231" viewBox="0 0 248 231" fill="none" xmlns="http://www.w3.org/2000/svg">
<path d="M167.492 164.586C179.804 152.211 187.41 135.156 187.41 116.32C187.41 107.804 185.857 99.6479 183.01 92.1252C181.699 88.6486 180.114 85.3087 178.274 82.1283C176.652 79.317 174.83 76.6287 172.835 74.0862C171.669 72.6008 170.449 71.1701 169.164 69.7895C168.066 68.6003 166.918 67.4521 165.734 66.3403C161.999 62.8455 157.873 59.7608 153.422 57.1682C143.316 51.2676 131.555 47.8867 119.006 47.8867C81.2233 47.8867 50.5964 78.5197 50.5964 116.32C50.5964 130.058 54.6462 142.852 61.6147 153.569C69.5674 165.803 81.3235 175.339 95.2113 180.493C102.623 183.24 110.639 184.744 119.006 184.744C137.954 184.744 155.103 177.039 167.492 164.586Z" fill="#FFCC33"/>
<path d="M105.566 122.244C105.529 122.089 105.498 121.378 105.456 121.446C105.393 121.578 105.324 121.706 105.261 121.833C105.402 120.403 105.466 118.967 105.456 117.541L105.976 117.537C105.976 117.537 106.277 117.377 106.76 117.222C107.065 117.127 107.447 117.031 107.866 116.981C109.424 116.785 111.538 117.222 112.504 120.508C114.134 126.057 108.632 127.903 104.214 125.939C104.574 125.037 104.874 124.089 105.107 123.096C105.12 122.991 105.134 122.886 105.148 122.781C105.251 122.626 105.393 122.435 105.566 122.244Z" fill="#E0B7A0"/>
<path d="M107.324 156.786C112.744 166.697 108.044 183.87 108.044 183.87C78.0909 179.969 61.6155 153.569 61.6155 153.569C65.6242 149.223 70.8076 146.416 76.7012 145.55C76.8925 145.523 77.0838 145.495 77.2756 145.473L77.2801 145.596L77.6122 156.463L82.6043 151.077L82.6225 151.091V162.937H84.8999V151.546L84.95 151.496L89.9103 156.463L88.8358 145.509V145.5C96.2876 146.261 103.484 150.179 107.324 156.786Z" fill="#A8EFC8"/>
<path d="M104.209 94.0985C104.209 94.0985 108.773 97.0283 106.759 117.222C106.276 117.377 105.976 117.537 105.976 117.537L105.456 117.541C105.392 106.146 100.984 95.4153 100.984 95.4153C89.4549 101.425 76.2458 99.6027 64.8586 95.5019C61.2147 101.881 60.3038 109.627 59.8483 116.917C59.8483 117.127 59.8533 117.332 59.862 117.537H59.8483C59.8483 117.537 59.033 117.109 57.9585 116.981C57.922 116.79 57.498 114.662 57.1614 111.809L57.3208 111.791C57.3208 111.791 56.7013 97.0693 62.067 96.1307C62.067 96.1307 59.6574 90.3395 62.6545 87.9109C65.6562 85.4777 66.8314 87.4552 66.8314 87.4552C66.8314 87.4552 66.1253 81.9966 72.0831 81.6822C72.0831 81.6822 76.4877 81.7187 77.7721 84.8535C77.7721 84.8535 79.3203 79.8961 84.6723 80.8074C90.0243 81.7187 89.6826 83.883 89.6826 83.883C89.6826 83.883 91.1994 81.3769 95.2214 82.8213C99.2387 84.2612 101.448 86.7672 101.53 88.0202C101.53 88.0248 101.53 88.0248 101.53 88.0293C101.53 88.0293 104.113 87.7104 104.714 93.0323C104.577 93.374 104.409 93.7294 104.209 94.0985Z" fill="#595959"/>
<path d="M105.456 121.447C105.497 121.378 105.529 122.089 105.565 122.244C105.392 122.435 105.251 122.627 105.146 122.782C105.187 122.467 105.224 122.148 105.26 121.834C105.324 121.706 105.393 121.579 105.456 121.447Z" fill="#E0B7A0"/>
<path d="M105.456 117.542C105.466 118.968 105.402 120.403 105.26 121.834C97.2755 137.508 83.0962 138.219 83.0962 138.219C70.2606 138.565 61.3011 124.012 61.0279 123.561C61.0233 123.556 61.0233 123.552 61.0233 123.552C60.9686 123.401 60.914 123.251 60.8639 123.096C60.2809 121.333 59.921 119.483 59.8618 117.537C59.8527 117.332 59.8481 117.127 59.8481 116.917C60.3036 109.627 61.2146 101.881 64.8585 95.5021C76.2457 99.6029 89.4548 101.425 100.984 95.4155C100.984 95.4155 105.393 106.146 105.456 117.542Z" fill="#E0B7A0"/>
<path d="M105.261 121.833C105.224 122.148 105.188 122.467 105.147 122.781C105.024 122.968 104.96 123.096 104.96 123.096L104.209 125.939H104.213C102.182 131.019 98.1965 134.715 93.555 137.421C91.9294 138.323 90.2437 138.988 88.5219 139.43C88.3037 139.485 88.0847 139.54 87.8615 139.59C84.4772 140.342 81.0018 140.246 77.6905 139.399C74.3609 138.551 71.2048 136.947 68.5033 134.687C67.9617 134.232 66.2259 132.409 66.2259 132.409C64.5497 130.313 63.0653 128.117 61.9489 125.779C61.6027 125.059 61.2975 124.317 61.0283 123.56C61.3021 124.011 70.2615 138.565 83.0966 138.218C83.0966 138.218 97.2755 137.508 105.261 121.833Z" fill="#C99D87"/>
<path d="M105.147 122.781C105.133 122.886 105.119 122.991 105.106 123.096C104.874 124.089 104.573 125.037 104.213 125.939H104.208L104.96 123.096C104.96 123.096 105.024 122.968 105.147 122.781Z" fill="#E0B7A0"/>
<path d="M102.009 86.1157C102.009 86.1157 106.895 87.7014 104.714 93.0324C104.113 87.7105 101.53 88.0294 101.53 88.0294C101.53 88.0249 101.53 88.0249 101.53 88.0203C101.448 86.7673 99.2392 84.2613 95.2214 82.8214C91.1994 81.377 89.6826 83.8831 89.6826 83.8831C89.6826 83.8831 90.0243 81.7188 84.6723 80.8075C79.3203 79.8962 77.7721 84.8536 77.7721 84.8536C76.4877 81.7188 72.0831 81.6823 72.0831 81.6823C66.1254 81.9967 66.8314 87.4553 66.8314 87.4553C66.8314 87.4553 65.6562 85.4778 62.6545 87.911C59.6574 90.3395 62.067 96.1308 62.067 96.1308C56.7013 97.0694 57.3208 111.791 57.3208 111.791L57.1614 111.809C56.4554 105.827 56.1315 96.6502 60.5315 95.4154C60.5315 95.4154 58.3315 90.7177 60.9688 87.6421C63.6061 84.5665 65.6557 85.4778 65.6557 85.4778C65.6557 85.4778 65.428 80.5797 71.2355 79.8962C77.0429 79.2127 77.6123 82.1744 77.6123 82.1744C77.6123 82.1744 78.6371 78.7571 84.5584 78.7571C90.4797 78.7571 90.0243 81.7188 90.0243 81.7188C90.0243 81.7188 92.5021 79.4405 97.0164 81.4909C101.526 83.5413 102.009 86.1157 102.009 86.1157Z" fill="#686666"/>
<path d="M88.8358 145.509L89.9103 156.463L84.95 151.496L83.5334 150.075L88.5848 145.491C88.5848 145.486 88.5848 145.477 88.5848 145.473C88.6672 145.482 88.7533 145.491 88.8358 145.5V145.509Z" fill="#A8EFC8"/>
<path d="M88.585 145.473C88.585 145.477 88.585 145.486 88.585 145.491L83.5336 150.075L77.6123 145.623V145.596V139.7L77.6897 139.399C81.0016 140.246 84.4765 140.342 87.8607 139.59L88.585 139.663C88.585 141.709 88.585 143.422 88.585 145.473Z" fill="#C99D87"/>
<path d="M83.5339 150.074L84.9505 151.496L84.9004 151.546V162.937H82.6229V151.09L82.6042 151.077L83.5339 150.074Z" fill="#A8EFC8"/>
<path d="M83.5341 150.075L82.6045 151.077L77.6128 156.463L77.2803 145.596H77.6128V145.623L83.5341 150.075Z" fill="#A8EFC8"/>
<path d="M60.8644 123.096L61.6155 125.939C57.1978 127.903 51.6905 126.057 53.3211 120.508C54.2868 117.222 56.4007 116.785 57.9584 116.981C59.0329 117.108 59.8482 117.537 59.8482 117.537H59.8619C59.9216 119.482 60.2814 121.332 60.8644 123.096Z" fill="#E0B7A0"/>
<path d="M57.5849 121.815C59.5572 120.508 60.8644 123.096 60.8644 123.096L61.6155 125.939C57.1978 127.903 51.6905 126.057 53.3211 120.508C54.2868 117.222 56.4007 116.785 57.9584 116.981C59.0329 117.108 59.8482 117.537 59.8482 117.537" stroke="#3F455D" stroke-width="2" stroke-miterlimit="10" stroke-linecap="round" stroke-linejoin="round"/>
<path d="M108.24 121.815C107.074 121.041 106.135 121.633 105.566 122.244C105.393 122.435 105.252 122.626 105.147 122.781C105.024 122.968 104.96 123.096 104.96 123.096L104.209 125.939H104.214C108.632 127.903 114.134 126.057 112.503 120.508C111.538 117.222 109.424 116.785 107.866 116.981C107.447 117.031 107.064 117.127 106.759 117.222C106.276 117.377 105.976 117.537 105.976 117.537" stroke="#3F455D" stroke-width="2" stroke-miterlimit="10" stroke-linecap="round" stroke-linejoin="round"/>
<path d="M61.0238 123.552C60.9691 123.401 60.9145 123.251 60.8644 123.096C60.2813 121.333 59.9215 119.483 59.8623 117.537C59.8532 117.332 59.8486 117.127 59.8486 116.917C60.3041 109.627 61.2151 101.881 64.859 95.5021C76.2461 99.6029 89.4552 101.425 100.984 95.4155C100.984 95.4155 105.393 106.146 105.456 117.542C105.466 118.968 105.402 120.403 105.261 121.834C105.224 122.148 105.188 122.467 105.147 122.781C105.133 122.886 105.119 122.991 105.106 123.096C104.873 124.089 104.573 125.037 104.213 125.939C102.182 131.02 98.196 134.715 93.5546 137.421C91.929 138.323 90.2432 138.989 88.5215 139.431C88.3033 139.485 88.0842 139.54 87.861 139.59C84.4768 140.342 81.0014 140.246 77.69 139.399C74.3604 138.551 71.2044 136.947 68.5029 134.687C67.9613 134.232 66.2254 132.409 66.2254 132.409C64.5493 130.313 63.0648 128.117 61.9484 125.78C61.6023 125.06 61.2971 124.317 61.0279 123.561" stroke="#3F455D" stroke-width="2" stroke-miterlimit="10" stroke-linecap="round" stroke-linejoin="round"/>
<path d="M88.8358 145.509L89.9103 156.463L84.95 151.496L83.5335 150.075L82.6043 151.077L77.6122 156.463L77.2801 145.596L77.2756 145.473C77.0838 145.495 76.8925 145.523 76.7012 145.55C70.8076 146.416 65.6242 149.223 61.6155 153.569C61.6155 153.569 78.0909 179.969 108.044 183.87C108.044 183.87 112.744 166.697 107.324 156.786C103.484 150.179 96.2876 146.261 88.8358 145.5C88.7534 145.491 88.6673 145.482 88.5848 145.473" stroke="#3F455D" stroke-width="2" stroke-miterlimit="10" stroke-linecap="round" stroke-linejoin="round"/>
<path d="M77.6125 139.699V145.595V145.623L83.5339 150.074L88.5848 145.49" stroke="#3F455D" stroke-width="2" stroke-miterlimit="10" stroke-linecap="round" stroke-linejoin="round"/>
<path d="M88.585 139.663C88.585 141.709 88.585 143.422 88.585 145.473C88.585 145.477 88.585 145.486 88.585 145.491" stroke="#3F455D" stroke-width="2" stroke-miterlimit="10" stroke-linecap="round" stroke-linejoin="round"/>
<path d="M57.963 116.995C57.963 116.995 57.963 116.99 57.9585 116.981C57.922 116.79 57.498 114.662 57.1614 111.809C56.4554 105.827 56.1315 96.6502 60.5315 95.4154C60.5315 95.4154 58.3315 90.7177 60.9688 87.6421C63.6061 84.5665 65.6557 85.4778 65.6557 85.4778C65.6557 85.4778 65.428 80.5797 71.2355 79.8962C77.0429 79.2127 77.6123 82.1744 77.6123 82.1744C77.6123 82.1744 78.6371 78.7571 84.5584 78.7571C90.4797 78.7571 90.0243 81.7188 90.0243 81.7188C90.0243 81.7188 92.5021 79.4405 97.0164 81.4909C101.525 83.5413 102.009 86.1157 102.009 86.1157C102.009 86.1157 106.895 87.7014 104.714 93.0324C104.577 93.3741 104.409 93.7295 104.209 94.0986C104.209 94.0986 108.773 97.0284 106.759 117.223" stroke="#3F455D" stroke-width="2" stroke-miterlimit="10" stroke-linecap="round" stroke-linejoin="round"/>
<path d="M82.623 151.09V162.937H84.9005V151.546" stroke="#3F455D" stroke-width="2" stroke-miterlimit="10" stroke-linecap="round" stroke-linejoin="round"/>
<path d="M61.0239 123.551C61.0239 123.551 61.0239 123.556 61.0289 123.561" stroke="#3F455D" stroke-width="2" stroke-miterlimit="10" stroke-linecap="round" stroke-linejoin="round"/>
<path d="M63.7607 110.967C63.7607 110.967 65.9926 105.945 72.4428 107.303" stroke="#3F455D" stroke-width="2" stroke-miterlimit="10" stroke-linecap="round" stroke-linejoin="round"/>
<path d="M100.82 110.074C98.9339 107.472 95.7414 106.656 92.6755 107.303" stroke="#3F455D" stroke-width="2" stroke-miterlimit="10" stroke-linecap="round" stroke-linejoin="round"/>
<path d="M94.9024 117.537C94.9024 117.86 94.8204 118.166 94.6746 118.43C94.3608 119.018 93.7409 119.414 93.0308 119.414C91.9964 119.414 91.1628 118.571 91.1628 117.537C91.1628 116.507 91.9964 115.664 93.0308 115.664C93.7272 115.664 94.338 116.051 94.6564 116.616C94.8163 116.89 94.9024 117.204 94.9024 117.537Z" fill="#3F455D"/>
<path d="M72.0831 115.664C73.117 115.664 73.9551 116.507 73.9551 117.537C73.9551 118.571 73.1166 119.414 72.0831 119.414C71.0537 119.414 70.2156 118.571 70.2156 117.537C70.2156 116.507 71.0537 115.664 72.0831 115.664Z" fill="#3F455D"/>
<path d="M73.9551 117.537C73.9551 118.571 73.1166 119.414 72.0831 119.414C71.0537 119.414 70.2156 118.571 70.2156 117.537C70.2156 116.507 71.0537 115.664 72.0831 115.664C73.1166 115.664 73.9551 116.507 73.9551 117.537Z" stroke="#3F455D" stroke-width="2" stroke-miterlimit="10" stroke-linecap="round" stroke-linejoin="round"/>
<path d="M94.6564 116.616C94.338 116.051 93.7272 115.664 93.0308 115.664C91.9964 115.664 91.1628 116.507 91.1628 117.537C91.1628 118.571 91.9964 119.414 93.0308 119.414C93.7413 119.414 94.3608 119.018 94.6746 118.43C94.8204 118.166 94.9024 117.86 94.9024 117.537C94.9024 117.204 94.8163 116.89 94.6564 116.616Z" stroke="#3F455D" stroke-width="2" stroke-miterlimit="10" stroke-linecap="round" stroke-linejoin="round"/>
<path d="M86.5949 130.454L86.6313 130.531C85.5104 131.101 84.1079 131.493 82.3634 131.557C80.9692 131.507 79.8082 131.242 78.8425 130.85L78.9108 130.664C78.9108 130.664 79.799 128.508 82.5862 128.139C85.3742 127.77 86.5949 130.454 86.5949 130.454Z" fill="#F96162"/>
<path d="M78.8333 130.846C74.7021 129.165 74.1145 125.119 74.1145 125.119H81.712H82.623H90.9998C90.9998 125.119 90.2574 128.714 86.6317 130.532L86.5953 130.454C86.5953 130.454 85.3741 127.771 82.5865 128.14C79.7994 128.509 78.9112 130.664 78.9112 130.664L78.8429 130.851C78.8379 130.851 78.8379 130.846 78.8333 130.846Z" fill="#3F455D"/>
<path d="M81.712 125.119H74.1145C74.1145 125.119 74.7021 129.165 78.8333 130.846C78.8379 130.846 78.8379 130.851 78.8425 130.851C79.8081 131.243 80.9696 131.507 82.3634 131.557C82.4358 131.561 82.5137 131.566 82.5911 131.566" stroke="#3F455D" stroke-width="2" stroke-miterlimit="10" stroke-linecap="round" stroke-linejoin="round"/>
<path d="M81.7119 125.119H82.6229H90.9997C90.9997 125.119 90.2573 128.714 86.6316 130.532C85.5107 131.101 84.1082 131.493 82.3637 131.557C82.2908 131.561 82.2134 131.566 82.136 131.566" stroke="#3F455D" stroke-width="2" stroke-miterlimit="10" stroke-linecap="round" stroke-linejoin="round"/>
<path d="M78.9109 130.664C78.9109 130.664 79.7991 128.508 82.5862 128.139C85.3738 127.77 86.5949 130.454 86.5949 130.454" stroke="#3F455D" stroke-width="2" stroke-miterlimit="10" stroke-linecap="round" stroke-linejoin="round"/>
<path d="M119.904 68.0131C109.588 70.1409 105.584 69.0747 105.584 69.0747C103.716 76.1372 107.597 80.4658 107.597 80.4658C105.388 81.3817 102.651 86.2662 101.403 88.6947C101.439 88.4715 101.485 88.2436 101.53 88.0204C101.662 87.3734 101.822 86.74 102.008 86.1158C102.66 83.9788 103.657 82.0013 105.128 80.3519C99.1343 72.0364 105.128 65.0878 105.128 65.0878C106.112 70.4416 124.396 64.737 124.396 64.737C134.685 63.1832 143.23 64.0034 149.875 66.432C151.834 67.1473 153.629 68.0039 155.25 68.979C157.673 70.4371 159.714 72.1594 161.367 74.0868C164.287 77.4996 165.986 81.5502 166.378 85.8789C166.473 86.9405 166.546 87.9748 166.601 88.9772C162.474 73.4853 150.235 68.7831 150.235 68.7831C150.044 68.6464 149.848 68.5188 149.643 68.3958C143.198 64.4864 129.907 65.949 119.904 68.0131Z" fill="#EF9C81"/>
<path d="M166.601 88.9773C166.683 90.4262 166.729 91.8114 166.738 93.1282C166.824 102.934 165.203 108.98 165.203 108.98C165.203 109.449 165.194 109.914 165.171 110.379C165.312 102.154 162.589 94.7503 160.434 90.2166C159.04 87.2914 157.888 85.5554 157.888 85.5554C157.005 85.6784 156.134 85.7103 155.278 85.6693C148.118 85.3093 142.279 79.7004 142.279 79.7004C126.551 88.5171 108.299 84.2568 108.299 84.2568C103.098 90.4353 103.854 108.98 103.854 108.98C103.854 109.486 103.863 109.987 103.89 110.484C103.89 110.484 101.33 103.284 101.015 95.4155C100.929 93.1829 101.021 90.891 101.403 88.6948C102.651 86.2662 105.389 81.3817 107.598 80.4659C107.598 80.4659 103.717 76.1372 105.584 69.0748C105.584 69.0748 109.588 70.141 119.905 68.0131C129.907 65.949 143.199 64.4864 149.644 68.3958C149.848 68.5189 150.044 68.6464 150.236 68.7831C150.235 68.7831 162.474 73.4854 166.601 88.9773Z" fill="#E5774C"/>
<path d="M163.836 118.448C164.214 117.168 164.524 115.851 164.747 114.502C164.747 114.502 164.747 114.502 164.747 114.498C164.92 113.459 165.047 112.406 165.12 111.331L165.203 111.336C165.203 111.336 165.203 111.336 165.207 111.331C165.421 111.231 172.44 107.9 174.576 115.154C176.745 122.531 168.263 124.987 162.392 122.376H162.387C162.952 121.109 163.435 119.797 163.836 118.448Z" fill="#FFE8DA"/>
<path d="M105.124 118.102C104.495 115.915 104.089 113.623 103.935 111.263C103.912 111.003 103.899 110.743 103.889 110.484C103.862 109.987 103.853 109.486 103.853 108.98C103.853 108.98 103.097 90.4354 108.299 84.2569C108.299 84.2569 126.55 88.5171 142.278 79.7004C142.278 79.7004 148.117 85.3094 155.278 85.6694C156.134 85.7104 157.004 85.6785 157.887 85.5555C157.887 85.5555 159.04 87.2915 160.434 90.2167C162.588 94.7504 165.312 102.155 165.171 110.379C165.171 110.402 165.171 110.42 165.171 110.443C165.157 110.739 165.143 111.035 165.121 111.327V111.331C165.048 112.407 164.921 113.459 164.747 114.498C164.747 114.503 164.747 114.503 164.747 114.503C155.496 139.244 135.76 138.182 135.76 138.182C117.417 139.244 105.584 119.587 105.584 119.587C105.415 119.1 105.261 118.603 105.124 118.102Z" fill="#FFE8DA"/>
<path d="M106.645 122.326C106.254 121.433 105.898 120.521 105.584 119.587C105.584 119.587 117.418 139.244 135.76 138.182C135.76 138.182 155.496 139.244 164.748 114.502C164.524 115.851 164.214 117.168 163.837 118.448C163.435 119.797 162.953 121.109 162.388 122.376C158.502 131.156 150.909 137.781 141.704 140.078C141.417 140.151 141.126 140.219 140.839 140.283C138.803 140.729 136.69 140.962 134.53 140.962C131.884 140.962 129.315 140.611 126.864 139.955C119.385 137.95 113.013 133.079 108.882 126.527C108.039 125.196 107.292 123.788 106.645 122.326Z" fill="#E9BC9B"/>
<path d="M141.836 148.338C141.836 148.343 141.836 148.352 141.836 148.357C141.836 148.357 140.37 153.009 135.232 153.027C128.978 153.045 126.805 148.357 126.805 148.357V148.338V140.611L126.864 139.955C129.315 140.611 131.884 140.962 134.53 140.962C136.689 140.962 138.803 140.729 140.839 140.283L141.836 140.611C141.836 143.34 141.836 145.614 141.836 148.338Z" fill="#E9BC9B"/>
<path d="M105.124 118.102C105.261 118.603 105.415 119.1 105.584 119.588C105.898 120.522 106.254 121.433 106.645 122.326C106.126 122.554 105.589 122.745 105.047 122.895C104.705 122.991 104.363 123.073 104.017 123.132C99.7264 123.943 95.2763 122.367 94.6746 118.43C94.5885 117.874 94.579 117.268 94.6564 116.617C94.7111 116.157 94.8163 115.669 94.9666 115.154C97.1347 107.786 103.935 111.263 103.935 111.263C104.09 113.623 104.495 115.915 105.124 118.102Z" fill="#FFE8DA"/>
<path d="M144.013 148.63L144 148.707C144 148.707 142.633 156.462 134.367 155.875C126.254 155.296 124.733 148.707 124.733 148.707C126.036 148.42 126.806 148.338 126.806 148.338V148.357C126.806 148.357 128.979 153.045 135.232 153.027C140.37 153.009 141.837 148.357 141.837 148.357C141.837 148.352 141.837 148.343 141.837 148.338C142.56 148.407 143.289 148.502 144.013 148.63Z" fill="white"/>
<path d="M167.494 164.587V164.591C134.603 197.074 95.2131 180.498 95.2131 180.498V180.493C97.3812 169.466 102.364 162.19 107.748 157.396C114.239 151.619 121.317 149.459 124.733 148.707C124.733 148.707 126.255 155.296 134.367 155.875C142.633 156.462 144 148.707 144 148.707L144.013 148.63C153.342 150.211 162.702 156.348 167.494 164.587Z" fill="white"/>
<path d="M103.935 111.263C103.935 111.263 97.1347 107.786 94.9671 115.154C94.8168 115.669 94.7116 116.157 94.6569 116.617C94.5795 117.268 94.589 117.874 94.6751 118.43C95.2764 122.367 99.7269 123.943 104.018 123.132C104.364 123.073 104.705 122.991 105.047 122.895C105.589 122.745 106.127 122.554 106.646 122.326C106.65 122.326 106.65 122.321 106.655 122.321" stroke="#3F455D" stroke-width="2" stroke-miterlimit="10" stroke-linecap="round" stroke-linejoin="round"/>
<path d="M105.128 118.107C105.128 118.107 105.128 118.107 105.124 118.102C105.037 117.965 103.188 115.195 100.628 116.89" stroke="#3F455D" stroke-width="2" stroke-miterlimit="10" stroke-linecap="round" stroke-linejoin="round"/>
<path d="M165.203 111.336C165.203 111.336 165.203 111.336 165.207 111.331C165.421 111.231 172.44 107.9 174.576 115.154C176.745 122.531 168.264 124.987 162.392 122.376" stroke="#3F455D" stroke-width="2" stroke-miterlimit="10" stroke-linecap="round" stroke-linejoin="round"/>
<path d="M163.836 118.448C163.836 118.448 166.287 115.154 168.914 116.89" stroke="#3F455D" stroke-width="2" stroke-miterlimit="10" stroke-linecap="round" stroke-linejoin="round"/>
<path d="M165.171 110.379C165.193 109.914 165.203 109.449 165.203 108.98C165.203 108.98 166.824 102.934 166.737 93.1281C166.728 91.8113 166.683 90.4262 166.6 88.9772C166.546 87.9748 166.473 86.9405 166.377 85.8789C165.986 81.5502 164.287 77.4996 161.367 74.0868C159.713 72.1594 157.673 70.4371 155.25 68.979C153.628 68.0039 151.834 67.1473 149.875 66.432C143.229 64.0034 134.684 63.1832 124.395 64.737C124.395 64.737 106.112 70.4416 105.128 65.0878C105.128 65.0878 99.1338 72.0364 105.128 80.3519" stroke="#3F455D" stroke-width="2" stroke-miterlimit="10" stroke-linecap="round" stroke-linejoin="round"/>
<path d="M164.747 114.498C164.92 113.459 165.047 112.406 165.12 111.331V111.326C165.143 111.035 165.157 110.739 165.17 110.442" stroke="#3F455D" stroke-width="2" stroke-miterlimit="10" stroke-linecap="round" stroke-linejoin="round"/>
<path d="M165.171 110.442C165.171 110.42 165.171 110.401 165.171 110.379C165.312 102.154 162.588 94.7501 160.434 90.2165C159.04 87.2912 157.887 85.5552 157.887 85.5552C157.004 85.6782 156.134 85.7101 155.278 85.6691C148.117 85.3092 142.278 79.7002 142.278 79.7002C126.55 88.5169 108.299 84.2566 108.299 84.2566C103.097 90.4352 103.853 108.98 103.853 108.98C103.853 109.486 103.862 109.987 103.889 110.483C103.899 110.743 103.912 111.003 103.935 111.263C104.09 113.623 104.495 115.915 105.124 118.102C105.261 118.603 105.415 119.1 105.584 119.587C105.898 120.521 106.253 121.433 106.645 122.326C107.292 123.788 108.039 125.196 108.882 126.527C113.013 133.079 119.385 137.95 126.864 139.955C129.315 140.611 131.884 140.962 134.53 140.962C136.689 140.962 138.802 140.729 140.839 140.283C141.125 140.219 141.417 140.15 141.704 140.078C150.909 137.781 158.502 131.156 162.387 122.376C162.952 121.109 163.435 119.797 163.836 118.448C164.214 117.168 164.524 115.851 164.747 114.502" stroke="#3F455D" stroke-width="2" stroke-miterlimit="10" stroke-linecap="round" stroke-linejoin="round"/>
<path d="M105.128 80.3518C103.658 82.0012 102.66 83.9787 102.008 86.1157C101.822 86.7399 101.662 87.3733 101.53 88.0203C101.484 88.2436 101.439 88.4714 101.403 88.6946C101.02 90.8908 100.929 93.1827 101.015 95.4154C101.329 103.284 103.89 110.484 103.89 110.484" stroke="#3F455D" stroke-width="2" stroke-miterlimit="10" stroke-linecap="round" stroke-linejoin="round"/>
<path d="M126.805 148.338C126.805 148.338 126.036 148.42 124.733 148.707C121.317 149.459 114.238 151.619 107.748 157.397C102.364 162.19 97.3808 169.467 95.2126 180.493V180.498C95.2126 180.498 134.603 197.074 167.493 164.591V164.587C162.702 156.349 153.342 150.211 144.013 148.63C143.289 148.502 142.56 148.407 141.836 148.338" stroke="#3F455D" stroke-width="2" stroke-miterlimit="10" stroke-linecap="round" stroke-linejoin="round"/>
<path d="M126.805 140.611V148.339V148.357C126.805 148.357 128.978 153.045 135.232 153.027C140.37 153.009 141.836 148.357 141.836 148.357" stroke="#3F455D" stroke-width="2" stroke-miterlimit="10" stroke-linecap="round" stroke-linejoin="round"/>
<path d="M112.311 167.202L110.066 183.87" stroke="#3F455D" stroke-width="2" stroke-miterlimit="10" stroke-linecap="round" stroke-linejoin="round"/>
<path d="M141.836 140.611C141.836 143.34 141.836 145.614 141.836 148.339C141.836 148.343 141.836 148.352 141.836 148.357" stroke="#3F455D" stroke-width="2" stroke-miterlimit="10" stroke-linecap="round" stroke-linejoin="round"/>
<path d="M157.323 166.127V172.962" stroke="#3F455D" stroke-width="2" stroke-miterlimit="10" stroke-linecap="round" stroke-linejoin="round"/>
<path d="M124.733 148.708C124.733 148.708 126.254 155.296 134.366 155.875C142.633 156.463 143.999 148.708 143.999 148.708" stroke="#3F455D" stroke-width="2" stroke-miterlimit="10" stroke-linecap="round" stroke-linejoin="round"/>
<path d="M166.601 88.9773C166.965 90.3442 167.27 91.7977 167.494 93.3378" stroke="black" stroke-width="0.5" stroke-linecap="round" stroke-linejoin="round"/>
<path d="M100.719 90.0663C100.719 90.0663 100.975 89.5241 101.403 88.6948" stroke="black" stroke-width="0.5" stroke-linecap="round" stroke-linejoin="round"/>
<path d="M108.841 102.473C108.841 102.473 111.806 95.7981 120.383 97.6024" stroke="#3F455D" stroke-width="2" stroke-miterlimit="10" stroke-linecap="round" stroke-linejoin="round"/>
<path d="M158.808 102.473C158.808 102.473 155.847 95.7981 147.27 97.6024" stroke="#3F455D" stroke-width="2" stroke-miterlimit="10" stroke-linecap="round" stroke-linejoin="round"/>
<path d="M119.904 108.716C121.28 108.716 122.391 109.836 122.391 111.213C122.391 112.579 121.28 113.7 119.904 113.7C118.528 113.7 117.417 112.579 117.417 111.213C117.417 109.836 118.529 108.716 119.904 108.716Z" fill="#3F455D"/>
<path d="M147.748 108.716C149.119 108.716 150.235 109.836 150.235 111.213C150.235 112.579 149.119 113.7 147.748 113.7C146.372 113.7 145.261 112.579 145.261 111.213C145.261 109.836 146.372 108.716 147.748 108.716Z" fill="#3F455D"/>
<path d="M122.391 111.213C122.391 112.579 121.28 113.7 119.904 113.7C118.528 113.7 117.417 112.579 117.417 111.213C117.417 109.836 118.528 108.716 119.904 108.716C121.28 108.716 122.391 109.836 122.391 111.213Z" stroke="#3F455D" stroke-width="2" stroke-miterlimit="10" stroke-linecap="round" stroke-linejoin="round"/>
<path d="M145.261 111.213C145.261 112.579 146.372 113.7 147.748 113.7C149.119 113.7 150.235 112.579 150.235 111.213C150.235 109.836 149.119 108.716 147.748 108.716C146.372 108.716 145.261 109.836 145.261 111.213Z" stroke="#3F455D" stroke-width="2" stroke-miterlimit="10" stroke-linecap="round" stroke-linejoin="round"/>
<path d="M139.194 128.368L139.253 128.773C137.796 129.484 135.983 129.971 133.733 130.049C131.779 129.981 130.157 129.602 128.823 129.037L128.978 128.659C128.978 128.659 130.162 125.793 133.865 125.301C137.564 124.809 139.194 128.368 139.194 128.368Z" fill="#F96162"/>
<path d="M128.235 128.773C123.366 126.376 122.605 121.474 122.605 121.474H133.182H134.093H145.048C145.048 121.474 144.178 126.376 139.254 128.773L139.194 128.368C139.194 128.368 137.564 124.809 133.865 125.301C130.162 125.793 128.978 128.659 128.978 128.659L128.823 129.037C128.622 128.955 128.427 128.864 128.235 128.773Z" fill="#3F455D"/>
<path d="M133.182 121.474H122.605C122.605 121.474 123.366 126.376 128.235 128.773C128.427 128.864 128.622 128.955 128.823 129.037C130.157 129.602 131.779 129.981 133.733 130.049C133.805 130.049 133.883 130.053 133.96 130.053" stroke="#3F455D" stroke-width="2" stroke-miterlimit="10" stroke-linecap="round" stroke-linejoin="round"/>
<path d="M133.182 121.474H134.093H145.048C145.048 121.474 144.178 126.376 139.254 128.773C137.796 129.484 135.983 129.971 133.733 130.049C133.661 130.049 133.583 130.053 133.505 130.053" stroke="#3F455D" stroke-width="2" stroke-miterlimit="10" stroke-linecap="round" stroke-linejoin="round"/>
<path d="M128.978 128.659C128.978 128.659 130.162 125.793 133.865 125.301C137.563 124.809 139.194 128.368 139.194 128.368" stroke="#3F455D" stroke-width="2" stroke-miterlimit="10" stroke-linecap="round" stroke-linejoin="round"/>
<path d="M197.405 70.1774C197.405 80.0011 191.484 88.4442 183.012 92.1258C180.092 93.397 176.877 94.0987 173.492 94.0987C171.147 94.0987 168.878 93.7615 166.738 93.1282C164.478 92.4675 162.361 91.4788 160.434 90.2166C158.498 88.9545 156.762 87.419 155.278 85.6693C151.725 81.4956 149.579 76.0826 149.579 70.1774C149.579 69.576 149.603 68.9836 149.644 68.3958C149.693 67.7352 149.771 67.079 149.876 66.432C150.4 63.0602 151.639 59.9209 153.424 57.1688C157.683 50.5984 165.08 46.2561 173.493 46.2561C186.701 46.2561 197.405 56.9637 197.405 70.1774ZM191.94 70.2139C191.94 68.0769 190.204 66.3409 188.068 66.3409H178.275V57.1232C178.275 54.6673 176.28 52.6716 173.821 52.6716H173.62C171.161 52.6716 169.166 54.6673 169.166 57.1232V66.3409H165.736H158.917C157.851 66.3409 156.881 66.7737 156.18 67.4754C155.761 67.8946 155.442 68.4049 155.251 68.9791C155.119 69.3664 155.046 69.781 155.046 70.2139C155.046 72.3508 156.781 74.0868 158.917 74.0868H161.368H169.166V82.8397C169.166 85.3002 171.161 87.3005 173.62 87.3005H173.821C176.28 87.3005 178.275 85.3002 178.275 82.8397V82.1289V74.0868H188.068C190.204 74.0868 191.94 72.3508 191.94 70.2139Z" fill="#5EBB64"/>
<path d="M169.165 74.0869H161.367H158.917C156.781 74.0869 155.045 72.3509 155.045 70.2139C155.045 69.7811 155.118 69.3664 155.25 68.9791C155.441 68.405 155.76 67.8947 156.179 67.4755C156.881 66.7738 157.851 66.3409 158.917 66.3409H165.736H169.165V57.1233C169.165 54.6673 171.16 52.6716 173.62 52.6716H173.82C176.279 52.6716 178.275 54.6673 178.275 57.1233V66.3409H188.067C190.204 66.3409 191.939 68.077 191.939 70.2139C191.939 72.3509 190.204 74.0869 188.067 74.0869H178.275V82.129V82.8398C178.275 85.3003 176.279 87.3006 173.82 87.3006H173.62C171.16 87.3006 169.165 85.3003 169.165 82.8398V74.0869Z" fill="#E2F6E4"/>
<path d="M153.424 57.1688C157.682 50.5984 165.08 46.2561 173.492 46.2561C186.701 46.2561 197.405 56.9637 197.405 70.1774C197.405 80.0011 191.484 88.4442 183.012 92.1258C180.092 93.397 176.877 94.0987 173.492 94.0987C171.147 94.0987 168.878 93.7615 166.738 93.1282C164.478 92.4675 162.361 91.4788 160.434 90.2166C158.498 88.9545 156.762 87.419 155.278 85.6693C151.725 81.4956 149.579 76.0826 149.579 70.1774C149.579 69.576 149.603 68.9836 149.644 68.3958C149.693 67.7352 149.771 67.079 149.876 66.432C150.399 63.0602 151.638 59.9209 153.424 57.1688Z" stroke="#23652F" stroke-width="2" stroke-miterlimit="10" stroke-linecap="round" stroke-linejoin="round"/>
<path d="M178.275 74.0869V82.129V82.8398C178.275 85.3003 176.28 87.3006 173.821 87.3006H173.62C171.161 87.3006 169.166 85.3003 169.166 82.8398V74.0869" stroke="#23652F" stroke-width="2" stroke-miterlimit="10" stroke-linecap="round" stroke-linejoin="round"/>
<path d="M169.165 66.3409V57.1233C169.165 54.6673 171.16 52.6716 173.62 52.6716H173.82C176.28 52.6716 178.275 54.6673 178.275 57.1233V66.3409" stroke="#23652F" stroke-width="2" stroke-miterlimit="10" stroke-linecap="round" stroke-linejoin="round"/>
<path d="M169.165 74.0868H161.367H158.917C156.781 74.0868 155.045 72.3508 155.045 70.2138C155.045 69.7809 155.118 69.3663 155.25 68.979C155.441 68.4049 155.76 67.8946 156.179 67.4754C156.881 66.7737 157.851 66.3408 158.917 66.3408H165.736H169.165" stroke="#23652F" stroke-width="2" stroke-miterlimit="10" stroke-linecap="round" stroke-linejoin="round"/>
<path d="M178.275 66.3408H188.068C190.204 66.3408 191.939 68.0768 191.939 70.2138C191.939 72.3508 190.204 74.0868 188.068 74.0868H178.275" stroke="#23652F" stroke-width="2" stroke-miterlimit="10" stroke-linecap="round" stroke-linejoin="round"/>
<path d="M153.893 64.2905C153.893 64.2905 157.081 51.9881 170.746 50.1655" stroke="#B9EABC" stroke-width="3" stroke-miterlimit="10" stroke-linecap="round" stroke-linejoin="round"/>
</svg>
