<svg width="35" height="20" viewBox="0 0 35 20" fill="none" xmlns="http://www.w3.org/2000/svg">
    <path d="M16.21 0c.082.031.165.064.247.093.28.099.572.169.837.3 1.104.543 1.826 1.444 2.173 2.665a5 5 0 0 1 .13.843c.013.128.052.175.175.171.215-.006.43.002.646-.001.097-.002.14.037.137.141-.005.11-.001.221-.001.331V16.18a1.4 1.4 0 0 0 0 .15c.014.132-.037.173-.163.173-.924-.006-1.849-.006-2.773 0-.121 0-.163-.047-.162-.164.001-.06-.002-.12-.002-.18v-4.396c0-.288.014-.255-.236-.255-1.082 0-2.165.002-3.247-.003-.139-.001-.176.04-.175.185.005 1.53.003 3.06.003 4.591 0 .218 0 .219-.212.219-.9 0-1.8-.003-2.701.003-.14 0-.19-.037-.19-.194.004-4.004.005-8.008.002-12.013 0-.221 0-.222.217-.225.182-.002.364-.004.546.001.105.003.146-.03.155-.152.115-1.46.773-2.573 1.963-3.34A3.955 3.955 0 0 1 14.8.079.418.418 0 0 0 14.917 0h1.293zm-2.412 6.327V8.36c0 .22 0 .22.211.22h3.26c.197 0 .197 0 .197-.21V4.364c0-.321-.043-.292.274-.293.416-.002.833-.006 1.25.001.13.002.166-.048.16-.177a3.38 3.38 0 0 0-.273-1.16C18.42 1.67 17.664.948 16.592.617a3.389 3.389 0 0 0-1.55-.099 3.454 3.454 0 0 0-1.442.605c-.432.31-.793.718-1.057 1.192a3.84 3.84 0 0 0-.47 1.551c-.015.203-.006.204.182.204h1.336c.207 0 .207.001.207.224v2.032zM11.63 4.871c-.004.075.02.15.067.207a.27.27 0 0 0 .185.098.268.268 0 0 0 .204-.074.293.293 0 0 0 .093-.204.308.308 0 0 0-.076-.196.282.282 0 0 0-.18-.095.266.266 0 0 0-.199.07.292.292 0 0 0-.094.194zm7.972.027a.286.286 0 0 0-.071-.206.26.26 0 0 0-.194-.085.262.262 0 0 0-.191.086.286.286 0 0 0-.078.202.296.296 0 0 0 .082.2.272.272 0 0 0 .194.082.246.246 0 0 0 .186-.08.27.27 0 0 0 .072-.199zM27.654 8.054c-.287.026-.551.03-.809.075-1.105.191-1.912 1.079-2.078 2.238-.205 1.436.627 2.72 1.929 3.05.638.17 1.314.076 1.888-.263.574-.339 1-.897 1.192-1.558.084-.297.129-.605.134-.915.012-1.355-.004-2.71 0-4.065.002-.581-.002-1.165.05-1.742.068-.732.317-1.411.684-2.04.598-1.025 1.415-1.79 2.481-2.248A4.841 4.841 0 0 1 34.87.194c.105-.004.131.034.13.136-.002.818-.002 1.636 0 2.454.001.097-.032.128-.122.138-1.056.118-1.797.693-2.193 1.72-.11.289-.17.596-.173.906a404.72 404.72 0 0 0-.007 5.074c.004 1.105-.239 2.137-.813 3.07-.748 1.212-1.785 2.026-3.127 2.366-1.353.343-2.653.156-3.862-.583a5.288 5.288 0 0 1-1.647-1.592 5.58 5.58 0 0 1-.852-2.172c-.13-.78-.095-1.58.101-2.345a5.53 5.53 0 0 1 1.036-2.082c.517-.654 1.17-1.125 1.892-1.501.673-.352 1.388-.463 2.13-.422h.015c.265.013.264.013.266.289l.011 2.228v.176zM5.916 11.71v4.561c0 .226 0 .228-.221.228H3.109c-.2 0-.202 0-.202-.206V7.275c0-.356.002-.356-.343-.356-.795 0-1.59-.003-2.385.003-.135 0-.18-.034-.179-.183.007-.833.007-1.666 0-2.5 0-.131.035-.17.162-.17 2.82.003 5.64.003 8.461-.001.15 0 .185.057.184.203-.005.822-.005 1.645 0 2.468.001.152-.052.183-.184.183-.833-.006-1.667-.003-2.5-.003-.207 0-.207 0-.207.214v4.577zM30.512 17.938c0 .151-.027.301-.082.44-.055.14-.136.268-.238.375a1.096 1.096 0 0 1-.356.25 1.054 1.054 0 0 1-1.197-.249 1.154 1.154 0 0 1-.239-.373 1.178 1.178 0 0 1 .24-1.25c.205-.215.483-.336.773-.336.29 0 .57.12.775.334.206.214.323.505.325.81zM26.104 17.943a1.108 1.108 0 0 1-1.087 1.146 1.05 1.05 0 0 1-.419-.089 1.091 1.091 0 0 1-.354-.25 1.152 1.152 0 0 1-.236-.372 1.195 1.195 0 0 1 .24-1.249c.102-.106.223-.19.355-.247a1.05 1.05 0 0 1 .42-.087c.143-.001.286.027.419.084.132.057.253.142.354.25.101.106.18.234.233.374.053.14.079.29.075.44z" fill="#909196"/>
    <path d="M11.63 4.871a.292.292 0 0 1 .093-.194.266.266 0 0 1 .198-.07c.07.008.134.042.181.095a.308.308 0 0 1 .076.197.305.305 0 0 1-.093.204.277.277 0 0 1-.204.073.271.271 0 0 1-.185-.098.297.297 0 0 1-.067-.207zM19.601 4.898a.279.279 0 0 1-.072.198.255.255 0 0 1-.29.06.286.286 0 0 1-.17-.261.297.297 0 0 1 .076-.202.273.273 0 0 1 .192-.086.25.25 0 0 1 .193.085.275.275 0 0 1 .071.206z" fill="#909196"/>
</svg>
