<svg width="24" height="24" viewBox="0 0 24 24" fill="none" xmlns="http://www.w3.org/2000/svg">
    <path d="M7 13.5a1.5 1.5 0 1 0 0-3 1.5 1.5 0 0 0 0 3zM17 13.5a1.5 1.5 0 1 0 0-3 1.5 1.5 0 0 0 0 3zM13.5 12a1.5 1.5 0 1 1-3 0 1.5 1.5 0 0 1 3 0z" fill="#909196"/>
    <path fill-rule="evenodd" clip-rule="evenodd" d="M12 2C6.477 2 2 6.477 2 12s4.477 10 10 10 10-4.477 10-10S17.523 2 12 2zM4 12a8 8 0 1 1 16 0 8 8 0 0 1-16 0z" fill="#909196"/>
    <path d="M7 13.5a1.5 1.5 0 1 0 0-3 1.5 1.5 0 0 0 0 3zM17 13.5a1.5 1.5 0 1 0 0-3 1.5 1.5 0 0 0 0 3zM13.5 12a1.5 1.5 0 1 1-3 0 1.5 1.5 0 0 1 3 0z" stroke="#fff" stroke-width=".5" stroke-linecap="round" stroke-linejoin="round"/>
    <path clip-rule="evenodd" d="M12 2C6.477 2 2 6.477 2 12s4.477 10 10 10 10-4.477 10-10S17.523 2 12 2zM4 12a8 8 0 1 1 16 0 8 8 0 0 1-16 0z" stroke="#fff" stroke-width=".5" stroke-linecap="round" stroke-linejoin="round"/>
</svg>
