<svg width="22" height="22" viewBox="0 0 22 22" fill="none" xmlns="http://www.w3.org/2000/svg">
<path d="M19 16.064C19 16.352 18.9359 16.648 18.7997 16.936C18.6635 17.224 18.4872 17.496 18.2549 17.752C17.8623 18.184 17.4296 18.496 16.9409 18.696C16.4602 18.896 15.9394 19 15.3786 19C14.5613 19 13.688 18.808 12.7666 18.416C11.8453 18.024 10.9239 17.496 10.0105 16.832C9.08913 16.16 8.21582 15.416 7.38257 14.592C6.55734 13.76 5.81222 12.888 5.14722 11.976C4.49024 11.064 3.96144 10.152 3.57687 9.248C3.19229 8.336 3 7.464 3 6.632C3 6.088 3.09614 5.568 3.28843 5.088C3.48072 4.6 3.78518 4.152 4.20981 3.752C4.72258 3.248 5.28343 3 5.87631 3C6.10065 3 6.32499 3.048 6.52529 3.144C6.7336 3.24 6.91788 3.384 7.06209 3.592L8.92088 6.208C9.0651 6.408 9.16925 6.592 9.24136 6.768C9.31347 6.936 9.35353 7.104 9.35353 7.256C9.35353 7.448 9.29745 7.64 9.18528 7.824C9.08112 8.008 8.92889 8.2 8.7366 8.392L8.12769 9.024C8.03956 9.112 7.9995 9.216 7.9995 9.344C7.9995 9.408 8.00751 9.464 8.02354 9.528C8.04757 9.592 8.07161 9.64 8.08763 9.688C8.23185 9.952 8.48022 10.296 8.83275 10.712C9.19329 11.128 9.57787 11.552 9.99449 11.976C10.4271 12.4 10.8438 12.792 11.2684 13.152C11.685 13.504 12.0295 13.744 12.302 13.888C12.342 13.904 12.3901 13.928 12.4462 13.952C12.5103 13.976 12.5744 13.984 12.6465 13.984C12.7827 13.984 12.8868 13.936 12.975 13.848L13.5839 13.248C13.7842 13.048 13.9765 12.896 14.1607 12.8C14.345 12.688 14.5293 12.632 14.7296 12.632C14.8818 12.632 15.0421 12.664 15.2183 12.736C15.3946 12.808 15.5789 12.912 15.7792 13.048L18.4311 14.928C18.6395 15.072 18.7837 15.24 18.8718 15.44C18.9519 15.64 19 15.84 19 16.064Z" stroke="#909196" stroke-width="2" stroke-miterlimit="10"/>
</svg>
