<svg width="28" height="28" viewBox="0 0 28 28" fill="none" xmlns="http://www.w3.org/2000/svg">
<path fill-rule="evenodd" clip-rule="evenodd" d="M13.9331 4.97653C13.6413 5.48604 13.3168 6.28874 12.8235 7.52033L12.7588 7.68201C12.5056 8.31437 12.2837 8.86847 12.0515 9.31099C11.8006 9.78893 11.4952 10.2239 11.03 10.5703C10.5647 10.9168 10.0605 11.0847 9.53084 11.1877C9.04063 11.283 8.44674 11.3362 7.76935 11.397L7.45361 11.4253C6.22997 11.5351 5.44381 11.6085 4.92133 11.732C4.87846 11.7422 4.84012 11.752 4.8059 11.7615C4.82772 11.7901 4.85266 11.8215 4.88112 11.8561C5.22307 12.2709 5.8053 12.8054 6.71395 13.6334L7.33442 14.1988C7.75117 14.5786 8.11713 14.912 8.40031 15.2189C8.70557 15.5496 8.96999 15.9063 9.1453 16.3555C9.20251 16.5021 9.25007 16.6523 9.28767 16.8051C9.40288 17.2733 9.39203 17.7172 9.33294 18.1635C9.27811 18.5776 9.17095 19.0613 9.04888 19.6122L8.95796 20.0227C8.71211 21.1325 8.55028 21.8705 8.4914 22.3931C8.4829 22.4685 8.47751 22.5329 8.47426 22.5873C8.5208 22.5602 8.57499 22.527 8.63745 22.4862C9.07705 22.1991 9.66276 21.7232 10.5427 21.005L10.5825 20.9726C11.1116 20.5407 11.5703 20.1662 11.9789 19.8926C12.4151 19.6004 12.8784 19.3632 13.432 19.2747C13.8083 19.2145 14.1919 19.2145 14.5682 19.2747C15.1218 19.3632 15.5851 19.6004 16.0213 19.8926C16.4299 20.1663 16.8886 20.5407 17.4177 20.9726L17.4575 21.005C18.3374 21.7232 18.9231 22.1991 19.3627 22.4862C19.4252 22.527 19.4794 22.5602 19.5259 22.5873C19.5227 22.5329 19.5173 22.4685 19.5088 22.3931C19.4499 21.8705 19.2881 21.1325 19.0422 20.0227L18.9513 19.6122C18.8292 19.0613 18.7221 18.5776 18.6673 18.1635C18.6082 17.7172 18.5973 17.2733 18.7125 16.8051C18.7501 16.6523 18.7977 16.5021 18.8549 16.3555C19.0302 15.9063 19.2946 15.5496 19.5999 15.2189C19.8831 14.912 20.249 14.5786 20.6658 14.1988L21.2862 13.6334C22.1949 12.8054 22.7771 12.2709 23.1191 11.8561C23.1475 11.8215 23.1725 11.79 23.1943 11.7615C23.1601 11.752 23.1217 11.7422 23.0789 11.732C22.5564 11.6085 21.7702 11.5351 20.5466 11.4253L20.2308 11.397C19.5535 11.3362 18.9596 11.283 18.4694 11.1877C17.9397 11.0847 17.4355 10.9168 16.9702 10.5703C16.505 10.2239 16.1996 9.78893 15.9487 9.31099C15.7165 8.86848 15.4946 8.31438 15.2414 7.68205L15.1767 7.52033C14.6834 6.28874 14.3589 5.48604 14.0671 4.97653C14.0431 4.9346 14.0208 4.89723 14.0001 4.86397C13.9794 4.89723 13.9571 4.9346 13.9331 4.97653ZM23.4535 11.8595C23.4535 11.8595 23.4487 11.8571 23.4419 11.8516C23.4505 11.8566 23.4535 11.8595 23.4535 11.8595ZM23.3368 11.5399C23.3389 11.5314 23.3412 11.5267 23.3412 11.5267C23.3412 11.5267 23.3407 11.5308 23.3368 11.5399ZM4.65896 11.5267C4.65896 11.5267 4.66133 11.5315 4.66337 11.54C4.65953 11.5308 4.65896 11.5267 4.65896 11.5267ZM4.55832 11.8516C4.5515 11.8571 4.5467 11.8595 4.5467 11.8595C4.5467 11.8595 4.54965 11.8566 4.55832 11.8516ZM11.9082 3.817C12.2739 3.1784 12.8988 2.3335 14.0001 2.3335C15.1014 2.3335 15.7263 3.1784 16.092 3.817C16.4751 4.4861 16.8591 5.44492 17.3086 6.56757L17.3873 6.76418C17.6667 7.46164 17.8449 7.90292 18.0148 8.22671C18.1723 8.52678 18.2777 8.63474 18.3638 8.69886C18.4498 8.7629 18.583 8.83272 18.9148 8.89725C19.273 8.96692 19.746 9.01078 20.4934 9.07782L20.8459 9.10943C21.9524 9.20862 22.9096 9.29441 23.6156 9.46127C24.3095 9.62529 25.2297 9.97204 25.5632 10.9653C25.8965 11.9578 25.3732 12.7899 24.9196 13.3402C24.4579 13.9003 23.7471 14.5479 22.9252 15.2968L22.2708 15.8931C21.8109 16.3122 21.521 16.5777 21.3146 16.8013C21.1227 17.0092 21.0608 17.1213 21.0286 17.2038C21.0084 17.2556 20.9916 17.3086 20.9783 17.3626C20.9571 17.4488 20.9432 17.5764 20.9804 17.8572C21.0204 18.1593 21.1045 18.5437 21.2392 19.1516L21.3355 19.5862C21.5622 20.6098 21.753 21.4707 21.8275 22.1318C21.8947 22.7286 21.9353 23.6085 21.3504 24.2608C21.0444 24.6021 20.6464 24.848 20.2041 24.9689C19.3576 25.2002 18.5892 24.7678 18.0869 24.4399C17.5303 24.0764 16.8477 23.5192 16.0364 22.857L15.9821 22.8127C15.4019 22.3391 15.0287 22.0361 14.7227 21.8312C14.4341 21.6379 14.2927 21.5936 14.1997 21.5788C14.0675 21.5576 13.9327 21.5576 13.8005 21.5788C13.7075 21.5936 13.5661 21.6379 13.2774 21.8312C12.9715 22.0361 12.5983 22.3391 12.0181 22.8127L11.9638 22.857C11.1525 23.5192 10.4699 24.0764 9.91326 24.4399C9.41104 24.7678 8.64255 25.2002 7.79609 24.9689C7.35375 24.848 6.95583 24.6021 6.64983 24.2608C6.06486 23.6085 6.1055 22.7286 6.17274 22.1318C6.24724 21.4707 6.43797 20.6098 6.66474 19.5862L6.76101 19.1516C6.89567 18.5437 6.9798 18.1593 7.0198 17.8572C7.05698 17.5764 7.04313 17.4488 7.02193 17.3626C7.00864 17.3086 6.99184 17.2556 6.97163 17.2038C6.93942 17.1213 6.87746 17.0092 6.6856 16.8013C6.4792 16.5777 6.18932 16.3122 5.72944 15.8931L5.07504 15.2968C4.2531 14.5479 3.54232 13.9003 3.08064 13.3402C2.62702 12.7899 2.10372 11.9578 2.43699 10.9653C2.77052 9.97204 3.6907 9.62529 4.3846 9.46127C5.09055 9.29441 6.04775 9.20861 7.15431 9.10943C7.18448 9.10673 7.21476 9.10401 7.24514 9.10129L7.50679 9.07782C8.25417 9.01078 8.72715 8.96692 9.08539 8.89725C9.41716 8.83272 9.5504 8.7629 9.63639 8.69886C9.7225 8.63474 9.82789 8.52678 9.98536 8.22671C10.1553 7.90292 10.3335 7.46164 10.6129 6.76418L10.6574 6.65284C10.6689 6.62431 10.6803 6.59588 10.6916 6.56756C11.1411 5.44491 11.5251 4.48609 11.9082 3.817Z" fill="#D5D5D5"/>
</svg>
