<svg width="28" height="28" viewBox="0 0 28 28" fill="none" xmlns="http://www.w3.org/2000/svg">
    <path fill-rule="evenodd" clip-rule="evenodd" d="M11.909 3.817c.365-.639.99-1.484 2.092-1.484 1.1 0 1.726.845 2.092 1.484.383.67.767 1.628 1.216 2.75l.079.197c.28.698.457 1.139.627 1.463.158.3.263.408.35.472.085.064.219.134.55.198.358.07.832.114 1.579.18l.352.032c1.107.1 2.064.185 2.77.352.694.164 1.614.511 1.948 1.504.333.993-.19 1.825-.644 2.375-.462.56-1.172 1.208-1.994 1.957l-.655.596c-.46.42-.75.685-.956.908-.192.208-.254.32-.286.403-.02.052-.037.105-.05.159-.021.086-.035.213.002.494.04.302.124.687.259 1.295l.096.434c.227 1.024.418 1.885.492 2.546.067.597.108 1.476-.477 2.129a2.384 2.384 0 0 1-1.146.708c-.847.231-1.615-.201-2.118-.53-.556-.363-1.239-.92-2.05-1.582l-.054-.044c-.58-.474-.954-.777-1.26-.982-.288-.193-.43-.237-.523-.252a1.26 1.26 0 0 0-.399 0c-.093.015-.234.059-.523.252-.306.205-.68.508-1.26.982l-.054.044c-.811.662-1.494 1.22-2.05 1.583-.502.328-1.271.76-2.117.529a2.383 2.383 0 0 1-1.147-.708c-.585-.652-.544-1.532-.477-2.13.075-.66.265-1.521.492-2.545l.096-.434c.135-.608.22-.993.26-1.295.036-.28.023-.408.001-.494a1.275 1.275 0 0 0-.05-.16c-.032-.082-.094-.194-.286-.402-.206-.223-.496-.489-.956-.908l-.654-.596c-.822-.75-1.533-1.397-1.995-1.957-.453-.55-.977-1.382-.644-2.375.334-.993 1.254-1.34 1.948-1.504.706-.167 1.663-.252 2.77-.352l.09-.008.262-.023c.748-.067 1.22-.111 1.579-.18.332-.065.465-.135.55-.2.087-.063.192-.171.35-.471.17-.324.348-.765.627-1.463l.045-.111.034-.085c.45-1.123.833-2.082 1.217-2.751z" fill="#EFDA6A"/>
</svg>
