<svg width="88" height="48" viewBox="0 0 88 48" fill="none" xmlns="http://www.w3.org/2000/svg">
    <path d="M40.757 0c.207.078.413.16.622.234.702.248 1.436.425 2.102.752 2.777 1.366 4.592 3.632 5.465 6.703.17.695.279 1.404.327 2.12.033.322.13.44.439.43.54-.017 1.083.004 1.625-.004.245-.004.354.094.343.356-.01.277-.001.555-.002.833v29.258a3.56 3.56 0 0 0 .001.378c.036.331-.094.434-.411.432a655.786 655.786 0 0 0-6.971 0c-.305 0-.411-.118-.407-.41.002-.151-.006-.303-.006-.454V29.576c-.001-.725.037-.64-.594-.64-2.72-.003-5.442.005-8.163-.01-.35-.002-.442.101-.44.465.012 3.848.008 7.696.007 11.545 0 .547-.001.548-.533.548-2.264.001-4.527-.006-6.79.008-.355.002-.477-.09-.477-.485.01-10.068.01-20.137.005-30.205 0-.556 0-.56.544-.566.458-.005.915-.01 1.373.003.265.007.367-.076.391-.383.288-3.67 1.942-6.468 4.933-8.398a9.944 9.944 0 0 1 3.073-1.26A1.05 1.05 0 0 0 37.505 0h3.252zm-6.064 15.909h.001v5.108c0 .554 0 .554.53.554l8.197-.002c.494 0 .493.003.492-.529 0-3.355 0-6.71.002-10.066.001-.807-.108-.733.688-.736 1.047-.005 2.094-.014 3.141.003.327.005.42-.121.402-.444a8.5 8.5 0 0 0-.685-2.92c-1.148-2.678-3.05-4.49-5.745-5.322a8.52 8.52 0 0 0-3.898-.25c-1.3.22-2.538.739-3.624 1.52a9.185 9.185 0 0 0-2.657 2.998 9.66 9.66 0 0 0-1.18 3.9c-.04.51-.018.512.457.512l3.358.002c.519 0 .52.002.52.563.002 1.703.002 3.406.001 5.108zm-5.454-3.661c-.011.189.049.375.167.518a.681.681 0 0 0 .467.248.674.674 0 0 0 .512-.185.766.766 0 0 0 .234-.513.774.774 0 0 0-.19-.494.708.708 0 0 0-.455-.238.67.67 0 0 0-.498.174.735.735 0 0 0-.237.49zm20.044.067a.72.72 0 0 0-.18-.518.63.63 0 0 0-.486-.213.658.658 0 0 0-.481.215.722.722 0 0 0-.195.509.744.744 0 0 0 .206.505.681.681 0 0 0 .485.204.616.616 0 0 0 .47-.204.678.678 0 0 0 .181-.498z" fill="#fff"/>
    <path d="M69.53 20.25c-.722.065-1.386.078-2.034.19-2.779.48-4.808 2.711-5.225 5.626-.516 3.61 1.576 6.837 4.85 7.668a6.174 6.174 0 0 0 4.748-.66c1.442-.853 2.516-2.256 2.996-3.917a8.974 8.974 0 0 0 .337-2.302c.03-3.406-.01-6.813.001-10.22.005-1.46-.005-2.929.127-4.38.168-1.84.796-3.548 1.717-5.127 1.505-2.58 3.558-4.503 6.24-5.654C84.68.874 86.163.54 87.67.488c.266-.01.33.087.33.342A999.198 999.198 0 0 0 88 7c0 .244-.084.323-.308.348-2.655.296-4.518 1.742-5.516 4.325a6.646 6.646 0 0 0-.435 2.278c-.04 4.252-.029 8.504-.016 12.756.009 2.778-.6 5.372-2.046 7.717-1.88 3.05-4.487 5.097-7.86 5.951-3.403.862-6.67.392-9.712-1.467a13.296 13.296 0 0 1-4.14-4.002 14.032 14.032 0 0 1-2.143-5.46 14.299 14.299 0 0 1 .255-5.897 13.9 13.9 0 0 1 2.605-5.235c1.299-1.643 2.943-2.827 4.756-3.774 1.693-.885 3.49-1.163 5.358-1.06h.036c.666.031.664.031.667.726.009 1.868.019 3.735.03 5.602v.443z" fill="#F0F0F4"/>
    <path d="M14.874 29.442V40.91c0 .568 0 .572-.556.573-2.167.002-4.334.003-6.502.002-.503 0-.506 0-.506-.52V18.292c0-.896.005-.896-.863-.896-1.999 0-3.997-.008-5.996.007-.34.003-.454-.086-.45-.46.016-2.094.016-4.189 0-6.283-.002-.332.088-.43.406-.43 7.091.008 14.182.007 21.274-.003.378 0 .464.144.462.51-.013 2.069-.013 4.138.001 6.207.003.381-.132.46-.464.458-2.095-.013-4.19-.006-6.285-.006-.52 0-.52 0-.52.538v11.507z" fill="#fff"/>
    <path d="M76.717 45.102c0 .38-.07.757-.208 1.108-.138.351-.341.67-.597.94-.257.269-.56.483-.896.629a2.651 2.651 0 0 1-2.114.002 2.754 2.754 0 0 1-.896-.627 2.904 2.904 0 0 1-.6-.939 3.013 3.013 0 0 1-.21-1.107 2.964 2.964 0 0 1 .812-2.037 2.698 2.698 0 0 1 1.946-.843c.73-.001 1.43.3 1.948.84.517.538.81 1.27.815 2.034zM65.633 45.113c.076 1.503-1.172 2.877-2.733 2.881a2.644 2.644 0 0 1-1.052-.222 2.746 2.746 0 0 1-.891-.627 2.896 2.896 0 0 1-.595-.937 3.004 3.004 0 0 1 .006-2.206c.139-.35.342-.667.598-.934.256-.267.56-.479.894-.623a2.643 2.643 0 0 1 1.054-.216 2.58 2.58 0 0 1 1.053.21c.335.144.638.357.892.626.254.27.453.59.586.942.133.352.197.728.189 1.106z" fill="#F0F0F4"/>
    <path d="M29.24 12.248c.014-.19.099-.366.236-.49a.67.67 0 0 1 .498-.173.709.709 0 0 1 .454.237c.12.135.187.31.192.494a.767.767 0 0 1-.235.513.697.697 0 0 1-.512.185.682.682 0 0 1-.466-.247.747.747 0 0 1-.168-.52zM49.283 12.315a.7.7 0 0 1-.18.498.616.616 0 0 1-.47.204.656.656 0 0 1-.486-.204.72.72 0 0 1-.206-.505.747.747 0 0 1 .195-.51.684.684 0 0 1 .482-.215.63.63 0 0 1 .485.214.693.693 0 0 1 .18.518z" fill="#fff"/>
</svg>
